<?xml version="1.0" encoding="iso-8859-1"?>
<!-- Generator: Adobe Illustrator 17.0.0, SVG Export Plug-In . SVG Version: 6.00 Build 0)  -->
<!DOCTYPE svg PUBLIC "-//W3C//DTD SVG 1.1//EN" "http://www.w3.org/Graphics/SVG/1.1/DTD/svg11.dtd">
<svg version="1.1" id="Calque_1" xmlns="http://www.w3.org/2000/svg" xmlns:xlink="http://www.w3.org/1999/xlink" x="0px" y="0px"
	 width="40px" height="40px" viewBox="0 0 40 40" style="enable-background:new 0 0 40 40;" xml:space="preserve">
<path style="fill:#FFFFFF;" d="M3.947,23.633c0.208,0.957,0.5,1.884,0.868,2.771c-0.883,0.724-1.766,1.449-2.648,2.173
	c0.581,0.731,1.031,1.555,1.329,2.438c1.089-0.387,2.179-0.774,3.268-1.162c0.578,0.784,1.224,1.513,1.929,2.182
	c-0.511,1.018-1.021,2.037-1.532,3.055c0.828,0.431,1.574,1.002,2.206,1.686c0.835-0.794,1.669-1.588,2.503-2.382
	c0.842,0.48,1.731,0.888,2.658,1.214c-0.052,1.133-0.104,2.267-0.156,3.4c0.932,0.057,1.846,0.275,2.702,0.643
	c0.439-1.064,0.878-2.128,1.317-3.192c0.476,0.046,0.957,0.073,1.444,0.077c0.498,0.005,0.991-0.014,1.478-0.053
	c0.414,1.057,0.827,2.114,1.241,3.172c0.874-0.327,1.798-0.5,2.729-0.511c-0.032-1.15-0.063-2.3-0.095-3.45
	c0.932-0.312,1.827-0.705,2.677-1.171c0.809,0.798,1.618,1.596,2.426,2.394c0.666-0.654,1.439-1.188,2.285-1.577
	c-0.498-1.042-0.997-2.083-1.496-3.125c0.715-0.657,1.373-1.376,1.964-2.151c1.067,0.402,2.134,0.803,3.202,1.205
	c0.342-0.869,0.831-1.67,1.446-2.37c-0.881-0.751-1.763-1.501-2.644-2.252c0.382-0.881,0.688-1.803,0.912-2.757
	c1.143-0.067,2.286-0.135,3.429-0.202c-0.041-0.933,0.08-1.864,0.357-2.754c-1.118-0.329-2.235-0.659-3.353-0.988
	c-0.01-0.981-0.107-1.942-0.283-2.875c1.022-0.529,2.044-1.059,3.066-1.588c-0.417-0.835-0.685-1.735-0.794-2.661
	c-1.159,0.154-2.318,0.308-3.478,0.463c-0.403-0.877-0.88-1.714-1.426-2.5c0.722-0.904,1.444-1.807,2.166-2.711
	c-0.72-0.594-1.332-1.307-1.807-2.108c-1.001,0.615-2.002,1.231-3.003,1.846c-0.716-0.632-1.489-1.201-2.308-1.702
	c0.292-1.123,0.585-2.245,0.878-3.368c-0.899-0.249-1.748-0.652-2.508-1.191c-0.665,0.971-1.33,1.941-1.995,2.912
	C24,4.182,23.065,3.976,22.104,3.851c-0.189-1.147-0.379-2.294-0.569-3.44c-0.923,0.138-1.862,0.115-2.776-0.067
	c-0.213,1.158-0.426,2.317-0.639,3.476c-0.962,0.109-1.899,0.3-2.803,0.568c-0.638-0.969-1.277-1.939-1.916-2.908
	c-0.787,0.501-1.654,0.863-2.563,1.067c0.276,1.143,0.552,2.286,0.828,3.429c-0.827,0.487-1.608,1.045-2.335,1.665
	C8.355,7.016,7.379,6.39,6.403,5.765C5.888,6.544,5.242,7.226,4.495,7.783c0.715,0.929,1.43,1.858,2.144,2.787
	c-0.558,0.777-1.049,1.606-1.466,2.477c-1.141-0.173-2.282-0.346-3.422-0.519c-0.154,0.921-0.466,1.807-0.922,2.619
	c1.025,0.556,2.051,1.111,3.077,1.666c-0.191,0.93-0.303,1.889-0.329,2.87c-1.108,0.305-2.217,0.609-3.325,0.914
	c0.234,0.904,0.309,1.84,0.223,2.768C1.633,23.454,2.79,23.544,3.947,23.633z M12.034,20.055c0.04-4.39,3.631-7.917,8.021-7.877
	c4.39,0.04,7.917,3.631,7.877,8.021c-0.04,4.39-3.631,7.917-8.021,7.877C15.521,28.036,11.995,24.445,12.034,20.055z"/>
</svg>
