<?xml version="1.0" encoding="iso-8859-1"?>
<!-- Generator: Adobe Illustrator 17.0.0, SVG Export Plug-In . SVG Version: 6.00 Build 0)  -->
<!DOCTYPE svg PUBLIC "-//W3C//DTD SVG 1.1//EN" "http://www.w3.org/Graphics/SVG/1.1/DTD/svg11.dtd">
<svg version="1.1" xmlns="http://www.w3.org/2000/svg" xmlns:xlink="http://www.w3.org/1999/xlink" x="0px" y="0px" width="800px"
	 height="800px" viewBox="0 0 800 800" style="enable-background:new 0 0 800 800;" xml:space="preserve">
<g id="Calque_1">
</g>
<g id="Calque_2">
	<g>
		<defs>
			<path id="XMLID_10_" d="M399.466,375.754c-7.432,0-13.457,6.025-13.457,13.457c0,0-0.794,9.408,13.457,33.066
				c12.026-19.989,13.325-29.805,13.439-32.369c0.002-0.035,0.003-0.07,0.004-0.106c0-0.007,0.001-0.015,0.001-0.022
				c0.008-0.189,0.013-0.379,0.013-0.57C412.923,381.779,406.898,375.754,399.466,375.754z M399.462,395.84
				c-3.837,0-6.947-3.11-6.947-6.947c0-3.837,3.11-6.947,6.947-6.947c3.836,0,6.947,3.11,6.947,6.947
				C406.409,392.73,403.299,395.84,399.462,395.84z"/>
		</defs>
		<use xlink:href="#XMLID_10_"  style="overflow:visible;fill:#F99512;"/>
		<clipPath id="XMLID_2_">
			<use xlink:href="#XMLID_10_"  style="overflow:visible;"/>
		</clipPath>
		<rect x="399.538" y="373.293" style="clip-path:url(#XMLID_2_);fill:#F99512;" width="15.489" height="53.985"/>
	</g>
</g>
</svg>
