<?xml version="1.0" encoding="iso-8859-1"?>
<!-- Generator: Adobe Illustrator 17.0.0, SVG Export Plug-In . SVG Version: 6.00 Build 0)  -->
<!DOCTYPE svg PUBLIC "-//W3C//DTD SVG 1.1//EN" "http://www.w3.org/Graphics/SVG/1.1/DTD/svg11.dtd">
<svg version="1.1" id="Calque_1" xmlns="http://www.w3.org/2000/svg" xmlns:xlink="http://www.w3.org/1999/xlink" x="0px" y="0px"
	 width="40px" height="40px" viewBox="0 0 40 40" style="enable-background:new 0 0 40 40;" xml:space="preserve">
<g>
	<path style="fill:#FFFFFF;" d="M39.772,8.256c0,1.627-1.147,2.945-2.561,2.945H3.061c-1.415,0-2.561-1.319-2.561-2.945l0,0
		c0-1.627,1.147-2.945,2.561-2.945h34.15C38.626,5.311,39.772,6.629,39.772,8.256L39.772,8.256z"/>
	<path style="fill:#FFFFFF;" d="M39.772,20.036c0,1.627-1.147,2.945-2.561,2.945H3.061c-1.415,0-2.561-1.319-2.561-2.945l0,0
		c0-1.627,1.147-2.945,2.561-2.945h34.15C38.626,17.091,39.772,18.41,39.772,20.036L39.772,20.036z"/>
	<path style="fill:#FFFFFF;" d="M39.772,31.911c0,1.627-1.147,2.945-2.561,2.945H3.061c-1.415,0-2.561-1.319-2.561-2.945l0,0
		c0-1.627,1.147-2.945,2.561-2.945h34.15C38.626,28.966,39.772,30.284,39.772,31.911L39.772,31.911z"/>
</g>
</svg>
