<?xml version="1.0" encoding="iso-8859-1"?>
<!-- Generator: Adobe Illustrator 17.0.0, SVG Export Plug-In . SVG Version: 6.00 Build 0)  -->
<!DOCTYPE svg PUBLIC "-//W3C//DTD SVG 1.1//EN" "http://www.w3.org/Graphics/SVG/1.1/DTD/svg11.dtd">
<svg version="1.1" id="Calque_1" xmlns="http://www.w3.org/2000/svg" xmlns:xlink="http://www.w3.org/1999/xlink" x="0px" y="0px"
	 width="40px" height="40px" viewBox="0 0 40 40" style="enable-background:new 0 0 40 40;" xml:space="preserve">
<g>
	<path style="fill:none;stroke:#FFFFFF;stroke-width:1.5389;stroke-miterlimit:10;" d="M6.844,10.611v25.882
		c0,0,0.396,1.453,1.981,1.453s22.977,0,22.977,0s1.32,0,1.32-1.453c0-1.453,0-25.882,0-25.882"/>
	<g>
		<path style="fill:#FFFFFF;" d="M1.033,10.755c0,0.212,0.172,0.385,0.385,0.385h37.132c0.212,0,0.385-0.172,0.385-0.385V8.798
			c0-0.212-0.172-0.385-0.385-0.385H1.417c-0.212,0-0.385,0.172-0.385,0.385V10.755z"/>
		<path style="fill:none;stroke:#FFFFFF;stroke-width:0.3847;stroke-miterlimit:10;" d="M1.033,10.755
			c0,0.212,0.172,0.385,0.385,0.385h37.132c0.212,0,0.385-0.172,0.385-0.385V8.798c0-0.212-0.172-0.385-0.385-0.385H1.417
			c-0.212,0-0.385,0.172-0.385,0.385V10.755z"/>
	</g>
	<path style="fill:none;stroke:#FFFFFF;stroke-width:1.3386;stroke-miterlimit:10;" d="M11.665,9.152V2.157
		c0,0,0.251-0.393,1.254-0.393s14.547,0,14.547,0s0.836,0,0.836,0.393s0,6.995,0,6.995"/>
	<g>
		<rect x="12.62" y="15.23" style="fill:#FFFFFF;" width="2.377" height="16.902"/>
		<rect x="18.409" y="15.23" style="fill:#FFFFFF;" width="2.377" height="16.902"/>
		<rect x="24.198" y="15.23" style="fill:#FFFFFF;" width="2.377" height="16.902"/>
	</g>
</g>
</svg>
