<?xml version="1.0" encoding="utf-8"?>
<!-- Generator: Adobe Illustrator 17.0.0, SVG Export Plug-In . SVG Version: 6.00 Build 0)  -->
<!DOCTYPE svg PUBLIC "-//W3C//DTD SVG 1.1//EN" "http://www.w3.org/Graphics/SVG/1.1/DTD/svg11.dtd">
<svg version="1.1" id="Calque_1" xmlns="http://www.w3.org/2000/svg" xmlns:xlink="http://www.w3.org/1999/xlink" x="0px" y="0px"
	 width="40px" height="40px" viewBox="0 0 40 40" enable-background="new 0 0 40 40" xml:space="preserve">
<circle fill="#F6F6F6" cx="20" cy="20" r="20"/>
<g>
	<circle fill="#3C3C3B" cx="21.649" cy="8.1" r="2.47"/>
	<path fill="#3C3C3B" d="M28.402,18.731l-3.562-1.575l-2.266-4.664c-0.06-0.16-0.134-0.312-0.221-0.456l-0.054-0.11
		c-0.135-0.277-0.347-0.483-0.583-0.598c-0.272-0.206-0.588-0.358-0.939-0.436c-0.206-0.045-0.411-0.06-0.614-0.052
		c-0.181-0.006-0.373,0.021-0.566,0.09c-0.311,0.088-0.604,0.237-0.865,0.437l-5.32,2.814c-0.096,0.05-0.181,0.11-0.262,0.173
		c-0.26,0.14-0.46,0.388-0.518,0.701l-0.831,4.403c-0.104,0.551,0.258,1.082,0.809,1.186c0.551,0.103,1.082-0.259,1.185-0.81
		l0.78-4.131l2.857-1.512l-1.257,5.708c-0.038,0.173-0.052,0.337-0.048,0.494l-0.953,5.952c-0.021,0.029-0.045,0.053-0.064,0.084
		l-3.749,5.781c-0.469,0.722-0.378,1.615,0.202,1.991c0.581,0.376,1.43,0.096,1.9-0.627l3.751-5.781
		c0.118-0.183,0.201-0.377,0.249-0.569c0.044-0.102,0.081-0.208,0.099-0.323l0.707-4.419c0.087,0.024,0.173,0.045,0.261,0.064
		c0.295,0.066,0.553,0.167,0.783,0.272l3.913,4.673l1.21,5.769c0.154,0.732,0.828,1.211,1.505,1.07
		c0.677-0.143,1.102-0.852,0.948-1.585l-1.229-5.858c-0.048-0.232-0.153-0.433-0.289-0.602c-0.046-0.08-0.099-0.159-0.162-0.233
		l-4.081-4.872l1.114-5.052l0.969,1.995c0.029,0.06,0.063,0.115,0.1,0.169c0.066,0.274,0.24,0.511,0.504,0.629l3.767,1.666
		c0.471,0.209,1.037-0.038,1.264-0.551C29.072,19.524,28.874,18.94,28.402,18.731z"/>
</g>
</svg>
