<?xml version="1.0" encoding="utf-8"?>
<!-- Generator: Adobe Illustrator 17.0.0, SVG Export Plug-In . SVG Version: 6.00 Build 0)  -->
<!DOCTYPE svg PUBLIC "-//W3C//DTD SVG 1.1//EN" "http://www.w3.org/Graphics/SVG/1.1/DTD/svg11.dtd">
<svg version="1.1" xmlns="http://www.w3.org/2000/svg" xmlns:xlink="http://www.w3.org/1999/xlink" x="0px" y="0px" width="40px"
	 height="40px" viewBox="0 0 40 40" enable-background="new 0 0 40 40" xml:space="preserve">
<g id="Calque_1" display="none">
	<g display="inline">
		
			<image overflow="visible" width="626" height="626" id="IiBPrM" xlink:href="12723DBB5A2BD16A.jpg"  transform="matrix(-0.0825 0 0 -0.0825 45.8321 45.8321)">
		</image>
	</g>
</g>
<g id="Calque_2">
	<path fill="#FFFFFF" d="M6.995-0.006l21.658,0c2.583,0,4.684,2.101,4.684,4.684v8.875c-0.796-0.001-1.602,0.001-2.342,0.004V4.678
		c0-1.292-1.051-2.342-2.342-2.342H6.995c-1.292,0-2.343,1.051-2.343,2.342v30.644c0,1.291,1.051,2.342,2.343,2.342h21.658
		c1.292,0,2.342-1.051,2.342-2.342v-9.098c0.742,0.003,1.549,0.004,2.342,0.004v9.094c0,2.583-2.101,4.684-4.684,4.684H6.995
		c-2.583,0-4.685-2.101-4.685-4.684V4.678C2.311,2.095,4.412-0.006,6.995-0.006z"/>
	<g>
		<path fill="#FFFFFF" d="M22.318,15.939v-4.373c0,0,0.127-2.323,2.576,0s9.081,7.56,9.081,7.56s1.198,0.497-0.591,1.901
			c-3.121,2.449-11.024,10.77-10.643,7.56v-5.702"/>
		<path fill="#FFFFFF" d="M23.125,30.49c1.394,0,3.41-1.716,7.667-5.614c1.282-1.174,2.493-2.282,3.314-2.928
			c0.393-0.308,1.587-1.246,1.416-2.496c-0.088-0.641-0.51-1.085-0.908-1.313c-0.786-0.623-6.681-5.305-8.915-7.422
			c-0.463-0.439-1.873-1.776-3.26-1.223c-0.892,0.355-1.253,1.304-1.292,2.009l-0.001,4.437h2.342v-4.025
			c0.151,0.106,0.35,0.265,0.6,0.502c2.206,2.092,7.604,6.395,8.891,7.416C32.9,19.908,32.796,20,32.661,20.106
			c-0.892,0.7-2.135,1.838-3.451,3.043c-1.549,1.419-3.923,3.593-5.299,4.54v-4.804h-2.342v5.641
			c-0.109,1.172,0.54,1.639,0.83,1.787C22.626,30.431,22.865,30.49,23.125,30.49z"/>
	</g>
	<path fill="#FFFFFF" d="M11.973,22.89c0,0.647,0.524,1.171,1.171,1.171h11.05c0.647,0,1.171-0.524,1.171-1.171v-5.78
		c0-0.647-0.524-1.171-1.171-1.171h-11.05c-0.647,0-1.171,0.524-1.171,1.171V22.89z"/>
</g>
</svg>
