<?xml version="1.0" encoding="utf-8"?>
<!-- Generator: Adobe Illustrator 17.0.0, SVG Export Plug-In . SVG Version: 6.00 Build 0)  -->
<!DOCTYPE svg PUBLIC "-//W3C//DTD SVG 1.1//EN" "http://www.w3.org/Graphics/SVG/1.1/DTD/svg11.dtd">
<svg version="1.1" id="Calque_1" xmlns="http://www.w3.org/2000/svg" xmlns:xlink="http://www.w3.org/1999/xlink" x="0px" y="0px"
	 width="40px" height="40px" viewBox="0 0 40 40" enable-background="new 0 0 40 40" xml:space="preserve">
<circle id="XMLID_1_" fill="#F29220" cx="20" cy="20" r="20"/>
<g>
	<defs>
		<circle id="SVGID_1_" cx="20" cy="20" r="20"/>
	</defs>
	<clipPath id="SVGID_2_">
		<use xlink:href="#SVGID_1_"  overflow="visible"/>
	</clipPath>
	<path clip-path="url(#SVGID_2_)" fill="#FFFFFF" d="M29.562,31.623c1.78,0,1.757-1.768,1.757-1.768v-18.9c0,0,0-3.577-3.586-3.577
		c-2.633,0-12.897,0-15.483,0c-3.585,0-3.583,3.577-3.583,3.577v18.9c0,0-0.104,1.768,1.767,1.768c0.26,0,0.779,0,1.484,0
		L6.556,38.75h2.175l0.686-0.896h21.329l0.591,0.896h2.107l-4.626-7.127C29.172,31.623,29.428,31.623,29.562,31.623z M26.421,27.796
		c-1.057,0-1.913-0.856-1.913-1.912s0.857-1.912,1.913-1.912s1.912,0.856,1.912,1.912C28.333,26.94,27.477,27.796,26.421,27.796z
		 M27.828,33.431H12.803l1.387-1.808c3.676,0,9.079,0,12.433,0L27.828,33.431z M21.475,10.559h5.092c0,0,1.743,0,1.743,2.026v5.499
		h-6.835C21.475,18.084,21.475,10.559,21.475,10.559z M11.5,12.584c0-2.026,1.742-2.026,1.742-2.026h5.35v7.524H11.5V12.584z
		 M11.807,25.884c0-1.056,0.856-1.912,1.913-1.912c1.055,0,1.912,0.856,1.912,1.912s-0.856,1.912-1.912,1.912
		C12.663,27.796,11.807,26.94,11.807,25.884z M29.877,36.537H10.425l1.37-1.789h16.902L29.877,36.537z"/>
</g>
</svg>
