<?xml version="1.0" encoding="utf-8"?>
<!-- Generator: Adobe Illustrator 17.0.0, SVG Export Plug-In . SVG Version: 6.00 Build 0)  -->
<!DOCTYPE svg PUBLIC "-//W3C//DTD SVG 1.1//EN" "http://www.w3.org/Graphics/SVG/1.1/DTD/svg11.dtd">
<svg version="1.1" id="Calque_1" xmlns="http://www.w3.org/2000/svg" xmlns:xlink="http://www.w3.org/1999/xlink" x="0px" y="0px"
	 width="40px" height="40px" viewBox="0 0 40 40" enable-background="new 0 0 40 40" xml:space="preserve">
<g>
	<g>
		<circle id="XMLID_1_" fill="#F29220" cx="20" cy="20" r="20"/>
	</g>
</g>
<path fill="#FFFFFF" d="M36.36,21.508c0.104-0.138,0.075-0.333-0.062-0.437c-0.081-0.056-0.244-0.262-0.397-0.497
	c-0.093-0.14-0.188-0.287-0.284-0.432l-0.219-1.368h-1c-1.12-0.943-2.566-1.512-4.145-1.512c-0.939,0-1.829,0.204-2.634,0.565
	l-0.998-1.851c-0.03-0.056-0.07-0.102-0.116-0.14l0.953-1.729c0.032,0.083,0.089,0.153,0.194,0.185
	c0.383,0.117,1.453-0.33,1.453-0.33l-0.06-0.208c0.26-0.005,0.466-0.015,0.559-0.029c0.412-0.059,0.569-1.021,0.412-1.257
	s-1.473,0.019-2.121,0.019s-3.417-0.177-3.241,0.295c0.177,0.471,1.826,0.53,1.885,0.766c0.014,0.054,0.165,0.096,0.39,0.127
	l-1.054,1.913c-0.114,0.034-0.215,0.109-0.278,0.221l-3.43,6.147l-0.199-0.014c-0.038-0.003-0.074,0.005-0.108,0.014
	c-0.082-0.01-0.164-0.025-0.249-0.025c-0.771,0-1.431,0.447-1.754,1.092c-0.159-0.101-0.322-0.212-0.488-0.338
	c-0.846-0.634-1.752-1.536-2.579-2.546c-0.885-1.08-1.7-2.474-2.286-3.591c-0.294-0.559-0.531-1.049-0.694-1.398
	c-0.098-0.209-0.165-0.358-0.206-0.451c0.186-0.845,0.297-1.394,0.297-1.396c0.014-0.07,0.013-0.14-0.005-0.21l-0.392-1.535
	l0.452-0.328c0.017-0.012,0.033-0.025,0.048-0.04c0.19,0.024,0.557,0.11,0.939,0.205c0.001,0,0.003,0.001,0.005,0.001
	c0.053,0.107,0.137,0.284,0.308,0.442c0.223,0.206,0.579,0.348,1.136,0.348c0.003,0,0.006,0,0.009,0c0.153,0,0.321-0.01,0.509-0.032
	c0.129-0.015,0.222-0.131,0.207-0.26c-0.015-0.13-0.131-0.222-0.261-0.207c-0.173,0.019-0.324,0.028-0.456,0.028
	c-0.408-0.006-0.621-0.076-0.753-0.166c0.265,0.049,0.532,0.084,0.789,0.085c0.121,0,0.242-0.008,0.364-0.029
	c0.256-0.046,0.427-0.289,0.382-0.546c-0.045-0.256-0.29-0.428-0.546-0.382l0,0c-0.052,0.009-0.119,0.015-0.199,0.015
	c-0.325,0.002-0.814-0.1-1.274-0.212c-0.471-0.109-0.884-0.231-1.257-0.238c-0.111,0.003-0.231,0.006-0.39,0.086
	c-0.086,0.036-0.171,0.123-0.23,0.224l-0.595,0.431c-0.157,0.114-0.229,0.311-0.181,0.498l0.444,1.741
	c-0.093,0.455-0.485,2.327-1.004,4.372c-0.527-0.216-1.086-0.364-1.671-0.424c0.005-0.022,0.013-0.043,0.013-0.067v-0.267
	c0.221-0.076,0.359-0.257,0.359-0.683c0-0.399-0.609-0.722-1.359-0.722c0,0-0.2,0.001-0.2,0.728c0,0.726,0.2,0.716,0.2,0.716
	c0.132,0,0.256,0.005,0.377,0.01v0.219c0,0.012,0.006,0.023,0.007,0.035c-0.008,0-0.015-0.001-0.022-0.001
	c-0.227,0-0.439,0.008-0.638,0.024c-0.172,0.013-0.3,0.163-0.287,0.335c0.007,0.087,0.049,0.162,0.11,0.214
	c-2.969,0.386-5.264,2.919-5.264,5.992c0,3.341,2.708,6.048,6.049,6.049c2.972-0.001,5.438-2.145,5.948-4.97
	c0.055,0.043,0.118,0.073,0.189,0.073c0.043,0,0.088-0.009,0.13-0.029c0.156-0.072,0.225-0.257,0.153-0.414
	c-0.066-0.12-0.093-0.549-0.088-0.666c0-0.025,0-0.035,0-0.035c-0.004-2.426-1.266-4.543-3.143-5.683
	c0.051-0.201,0.102-0.401,0.152-0.599c0.106-0.428,0.206-0.844,0.298-1.237c0.597,1.212,1.611,3.091,2.796,4.544
	c0.867,1.059,1.816,2.006,2.742,2.702c0.287,0.214,0.57,0.402,0.851,0.565c0.056,1.037,0.906,1.862,1.957,1.862
	c0.138,0,0.271-0.015,0.401-0.041c0.01,0.001,0.019,0.006,0.029,0.006c0.012,0,0.025-0.001,0.037-0.002l0.644-0.071
	c0.003,0.001,0.005,0.003,0.008,0.004l2.095,0.601c0.985,2.006,3.042,3.389,5.427,3.389c3.341,0,6.048-2.708,6.049-6.049
	c0-0.761-0.147-1.487-0.403-2.158c0.009,0.008,0.016,0.018,0.025,0.025C36.06,21.674,36.256,21.646,36.36,21.508z M9.626,28.575
	c-2.69-0.005-4.865-2.181-4.87-4.871c0.005-2.689,2.18-4.865,4.87-4.87c0.043,0,0.086,0.006,0.129,0.007
	c-0.002,0.023-0.009,0.044-0.007,0.068c0.019,0.184,0.184,0.317,0.368,0.298c0,0,0.018-0.002,0.066-0.002
	c0.147-0.006,0.448,0.045,0.56,0.184c0.066,0.072,0.156,0.108,0.247,0.108c0.081,0,0.163-0.029,0.227-0.089
	c0.076-0.07,0.108-0.167,0.104-0.263c0.067,0.025,0.136,0.046,0.201,0.074c-0.228,0.815-0.467,1.605-0.706,2.283
	c-0.032,0.047-0.056,0.1-0.069,0.158c-0.06,0.304-0.409,0.675-0.785,0.929c-0.061,0.043-0.12,0.078-0.18,0.115
	C9.73,22.697,9.678,22.69,9.625,22.69c-0.561,0-1.016,0.455-1.016,1.015c0,0.561,0.455,1.016,1.016,1.016
	c0.425,0,0.788-0.262,0.94-0.632c0.173-0.174,0.306-0.387,0.449-0.639c0.467-0.867,0.932-2.268,1.355-3.764
	c1.281,0.877,2.122,2.348,2.126,4.019C14.491,26.394,12.316,28.571,9.626,28.575z M23.16,22.701l0.479,0.034
	c0.023,0.017,0.045,0.031,0.062,0.045c0.138,0.082,0.322,0.149,0.547,0.215c-0.027,0.233-0.045,0.469-0.045,0.709
	c0,0.412,0.042,0.815,0.121,1.204l-1.106,0.123c0.225-0.32,0.36-0.708,0.36-1.129C23.579,23.447,23.419,23.034,23.16,22.701z
	 M29.13,23.235c-0.374-0.058-0.804-0.125-1.253-0.199l1.309,0.093C29.167,23.165,29.145,23.198,29.13,23.235z M25.382,23.704
	c0-0.147,0.01-0.291,0.023-0.435c1.142,0.235,2.612,0.474,3.651,0.633c0.028,0.168,0.088,0.325,0.177,0.463l-3.727,0.412
	C25.428,24.431,25.383,24.073,25.382,23.704z M25.622,22.205c0.34-1.046,1.021-1.938,1.915-2.541l0.346,0.641l-0.287,0.148
	c-0.096,0.049-0.128,0.176-0.073,0.283l0.451,0.874c0.055,0.106,0.177,0.153,0.272,0.103l0.31-0.16l0.483,0.895L25.622,22.205z
	 M26.058,16.921l0.732,1.357c-1.351,0.864-2.357,2.217-2.769,3.812l-0.152-0.011c-0.029-0.006-0.055-0.008-0.083-0.006l-0.579-0.041
	L26.058,16.921z M20.586,23.901c0.001-0.565,0.459-1.024,1.025-1.025c0.566,0.001,1.024,0.46,1.025,1.025
	c-0.001,0.566-0.459,1.024-1.025,1.025C21.045,24.925,20.587,24.467,20.586,23.901z M24.359,25.578l0.139-0.015
	c0.009,0.027,0.02,0.053,0.029,0.08L24.359,25.578z M30.253,28.575c-1.485-0.003-2.812-0.669-3.704-1.717l0.256,0.074
	c0.017,0.006,0.035,0.008,0.053,0.008c0.081,0,0.157-0.051,0.184-0.132c0.033-0.099-0.017-0.206-0.114-0.243l-0.82-0.314
	c-0.159-0.258-0.295-0.532-0.403-0.819l4.603-0.509c0.009-0.001,0.015-0.006,0.024-0.008c0.635-0.041,1.139-0.563,1.139-1.209
	c0-0.672-0.545-1.217-1.218-1.217c-0.04,0-0.077,0.008-0.115,0.011l-1.613-2.991c0.041-0.02,0.084-0.038,0.128-0.05
	c0.07-0.022,0.136-0.034,0.182-0.041s0.064-0.006,0.064-0.007c0.185-0.008,0.328-0.165,0.32-0.349
	c-0.002-0.038-0.013-0.072-0.026-0.105c0.342-0.077,0.696-0.12,1.061-0.121c2.69,0.005,4.865,2.181,4.87,4.87
	C35.118,26.394,32.942,28.57,30.253,28.575z"/>
</svg>
